<svg width="60" height="47" viewBox="0 0 60 47" fill="none" xmlns="http://www.w3.org/2000/svg">
<g clip-path="url(#clip0_9_44)">
<path d="M19.1914 32.3125C18.9708 32.3125 18.7503 32.3446 18.54 32.4126C17.3442 32.799 16.0866 33.0469 14.7625 33.0469C13.4385 33.0469 12.1809 32.799 10.9842 32.4126C10.7738 32.3446 10.5542 32.3125 10.3337 32.3125C4.60754 32.3125 -0.030757 36.9464 -0.000308707 42.6507C0.0126088 45.0612 2.00467 47 4.42854 47H25.0965C27.5204 47 29.5124 45.0612 29.5253 42.6507C29.5558 36.9464 24.9175 32.3125 19.1914 32.3125ZM14.7625 29.375C19.6545 29.375 23.6202 25.4296 23.6202 20.5625C23.6202 15.6954 19.6545 11.75 14.7625 11.75C9.87048 11.75 5.90482 15.6954 5.90482 20.5625C5.90482 25.4296 9.87048 29.375 14.7625 29.375ZM54.6221 0H19.1914C16.749 0 14.7625 2.04248 14.7625 4.55221V8.8125C16.9234 8.8125 18.9238 9.43488 20.6676 10.4465V5.875H53.1459V32.3125H47.2407V26.4375H35.4305V32.3125H28.396C30.1583 33.8446 31.4519 35.8678 32.0581 38.1875H54.6221C57.0645 38.1875 59.051 36.145 59.051 33.6353V4.55221C59.051 2.04248 57.0645 0 54.6221 0Z" fill="#1EB4E9"/>
</g>
<defs>
<clipPath id="clip0_9_44">
<rect width="59.0513" height="47" fill="white"/>
</clipPath>
</defs>
</svg>
