<svg width="47" height="47" viewBox="0 0 47 47" fill="none" xmlns="http://www.w3.org/2000/svg">
<path d="M45.5312 35.25H5.875V7.34375C5.875 6.53227 5.21773 5.875 4.40625 5.875H1.46875C0.657266 5.875 0 6.53227 0 7.34375V38.1875C0 39.8096 1.31545 41.125 2.9375 41.125H45.5312C46.3427 41.125 47 40.4677 47 39.6562V36.7188C47 35.9073 46.3427 35.25 45.5312 35.25ZM42.5938 8.8125H31.7562C29.7936 8.8125 28.8104 11.1854 30.1984 12.5734L33.1726 15.5476L26.4375 22.2837L19.7024 15.5486C18.5549 14.4011 16.6951 14.4011 15.5486 15.5486L9.24303 21.8541C8.6693 22.4278 8.6693 23.3577 9.24303 23.9314L11.3195 26.0079C11.8932 26.5816 12.8231 26.5816 13.3968 26.0079L17.625 21.7788L24.3601 28.5139C25.5076 29.6614 27.3674 29.6614 28.5139 28.5139L37.3264 19.7014L40.3007 22.6757C41.6886 24.0636 44.0616 23.0805 44.0616 21.1179V10.2812C44.0625 9.46977 43.4052 8.8125 42.5938 8.8125Z" fill="#1EB4E9"/>
</svg>
