<svg width="59" height="47" viewBox="0 0 59 47" fill="none" xmlns="http://www.w3.org/2000/svg">
<path d="M47.1417 17.5324L46.3868 18.8451C46.1106 19.3316 45.5215 19.5336 44.9968 19.3408C43.9105 18.9369 42.9163 18.3586 42.0418 17.6334C41.6183 17.2846 41.5079 16.6695 41.784 16.1922L42.5389 14.8795C41.9037 14.1451 41.4066 13.2914 41.0752 12.3642H39.5563C39.004 12.3642 38.5253 11.9695 38.4332 11.4187C38.2491 10.3172 38.2399 9.16053 38.4332 8.01307C38.5253 7.46229 39.004 7.05838 39.5563 7.05838H41.0752C41.4066 6.13124 41.9037 5.27753 42.5389 4.54315L41.784 3.23046C41.5079 2.75311 41.6091 2.13807 42.0418 1.78924C42.9163 1.06405 43.9197 0.485729 44.9968 0.0818223C45.5215 -0.110951 46.1106 0.091002 46.3868 0.577525L47.1417 1.89022C48.1082 1.71581 49.0932 1.71581 50.0598 1.89022L50.8147 0.577525C51.0908 0.091002 51.68 -0.110951 52.2047 0.0818223C53.291 0.485729 54.2852 1.06405 55.1597 1.78924C55.5832 2.13807 55.6936 2.75311 55.4174 3.23046L54.6626 4.54315C55.2978 5.27753 55.7949 6.13124 56.1263 7.05838H57.6452C58.1975 7.05838 58.6762 7.45311 58.7683 8.00389C58.9524 9.10545 58.9616 10.2621 58.7683 11.4096C58.6762 11.9603 58.1975 12.3642 57.6452 12.3642H56.1263C55.7949 13.2914 55.2978 14.1451 54.6626 14.8795L55.4174 16.1922C55.6936 16.6695 55.5924 17.2846 55.1597 17.6334C54.2852 18.3586 53.2818 18.9369 52.2047 19.3408C51.68 19.5336 51.0908 19.3316 50.8147 18.8451L50.0598 17.5324C49.1024 17.7068 48.1082 17.7068 47.1417 17.5324ZM46.1751 12.1348C49.7192 14.8519 53.7605 10.8221 51.0356 7.28788C47.4915 4.56151 43.4502 8.60057 46.1751 12.1348ZM35.5611 26.2623L38.6634 27.8045C39.5931 28.3369 39.9982 29.466 39.6299 30.4758C38.8106 32.6973 37.1997 34.7351 35.7084 36.516C35.0272 37.333 33.8489 37.5349 32.9191 37.0025L30.2403 35.4603C28.7674 36.718 27.0552 37.7185 25.1864 38.3703V41.4547C25.1864 42.5195 24.4224 43.4375 23.3729 43.6211C21.1084 44.0066 18.7334 44.025 16.3859 43.6211C15.3273 43.4375 14.5448 42.5287 14.5448 41.4547V38.3703C12.6761 37.7094 10.9639 36.718 9.49099 35.4603L6.81217 36.9933C5.89162 37.5258 4.7041 37.3238 4.02289 36.5068C2.5316 34.726 0.957448 32.6881 0.138154 30.4758C-0.230068 29.4752 0.174976 28.3461 1.10474 27.8045L4.17018 26.2623C3.81117 24.3437 3.81117 22.3701 4.17018 20.4424L1.10474 18.891C0.174976 18.3586 -0.239273 17.2295 0.138154 16.2289C0.957448 14.0074 2.5316 11.9695 4.02289 10.1887C4.7041 9.37167 5.88241 9.16971 6.81217 9.70214L9.49099 11.2443C10.9639 9.98671 12.6761 8.98612 14.5448 8.33436V5.24081C14.5448 4.18514 15.2997 3.26717 16.3491 3.08358C18.6137 2.69803 20.9979 2.67967 23.3453 3.0744C24.404 3.25799 25.1864 4.16678 25.1864 5.24081V8.32518C27.0552 8.98612 28.7674 9.97753 30.2403 11.2351L32.9191 9.69296C33.8397 9.16053 35.0272 9.36249 35.7084 10.1795C37.1997 11.9603 38.7646 13.9982 39.5839 16.2197C39.9521 17.2203 39.5931 18.3494 38.6634 18.891L35.5611 20.4332C35.9201 22.3609 35.9201 24.3346 35.5611 26.2623ZM24.7354 28.1992C30.1851 21.1308 22.0934 13.0619 15.0051 18.4963C9.55543 25.5646 17.6471 33.6336 24.7354 28.1992ZM47.1417 44.9705L46.3868 46.2832C46.1106 46.7697 45.5215 46.9717 44.9968 46.7789C43.9105 46.375 42.9163 45.7967 42.0418 45.0715C41.6183 44.7226 41.5079 44.1076 41.784 43.6303L42.5389 42.3176C41.9037 41.5832 41.4066 40.7295 41.0752 39.8023H39.5563C39.004 39.8023 38.5253 39.4076 38.4332 38.8568C38.2491 37.7553 38.2399 36.5986 38.4332 35.4512C38.5253 34.9004 39.004 34.4965 39.5563 34.4965H41.0752C41.4066 33.5693 41.9037 32.7156 42.5389 31.9812L41.784 30.6685C41.5079 30.1912 41.6091 29.5762 42.0418 29.2273C42.9163 28.5021 43.9197 27.9238 44.9968 27.5199C45.5215 27.3271 46.1106 27.5291 46.3868 28.0156L47.1417 29.3283C48.1082 29.1539 49.0932 29.1539 50.0598 29.3283L50.8147 28.0156C51.0908 27.5291 51.68 27.3271 52.2047 27.5199C53.291 27.9238 54.2852 28.5021 55.1597 29.2273C55.5832 29.5762 55.6936 30.1912 55.4174 30.6685L54.6626 31.9812C55.2978 32.7156 55.7949 33.5693 56.1263 34.4965H57.6452C58.1975 34.4965 58.6762 34.8912 58.7683 35.442C58.9524 36.5435 58.9616 37.7002 58.7683 38.8476C58.6762 39.3984 58.1975 39.8023 57.6452 39.8023H56.1263C55.7949 40.7295 55.2978 41.5832 54.6626 42.3176L55.4174 43.6303C55.6936 44.1076 55.5924 44.7226 55.1597 45.0715C54.2852 45.7967 53.2818 46.375 52.2047 46.7789C51.68 46.9717 51.0908 46.7697 50.8147 46.2832L50.0598 44.9705C49.1024 45.1449 48.1082 45.1449 47.1417 44.9705ZM46.1751 39.5637C49.7192 42.2808 53.7605 38.251 51.0356 34.7168C47.4915 31.9996 43.4502 36.0295 46.1751 39.5637Z" fill="#1EB4E9"/>
</svg>
