<svg width="47" height="47" viewBox="0 0 47 47" fill="none" xmlns="http://www.w3.org/2000/svg">
<g clip-path="url(#clip0_9_42)">
<path d="M29.9818 17.0181C35.4663 22.5084 35.3911 31.3107 30.0148 36.7168C30.0047 36.7278 29.9928 36.7397 29.9818 36.7508L23.813 42.9195C18.3722 48.3603 9.52033 48.3596 4.08036 42.9195C-1.36044 37.4796 -1.36044 28.6267 4.08036 23.1869L7.48657 19.7806C8.38985 18.8774 9.94544 19.4777 9.99207 20.7542C10.0516 22.3811 10.3433 24.0155 10.8816 25.5939C11.0639 26.1283 10.9336 26.7195 10.5343 27.1188L9.33297 28.3201C6.76027 30.8928 6.67958 35.0819 9.22695 37.6797C11.7995 40.3032 16.0278 40.3188 18.6201 37.7266L24.7888 31.5587C27.3767 28.9709 27.3658 24.7881 24.7888 22.2111C24.4491 21.872 24.1068 21.6085 23.8395 21.4245C23.6504 21.2946 23.4943 21.1223 23.3836 20.9214C23.2728 20.7205 23.2106 20.4965 23.2018 20.2673C23.1655 19.2972 23.5092 18.2977 24.2757 17.5312L26.2084 15.5984C26.7152 15.0916 27.5102 15.0293 28.0979 15.4395C28.7709 15.9094 29.4013 16.4377 29.9818 17.0181ZM42.9191 4.08008C37.4792 -1.35998 28.6273 -1.36072 23.1865 4.08008L17.0177 10.2488C17.0067 10.2598 16.9948 10.2718 16.9847 10.2828C11.6085 15.6889 11.5332 24.4912 17.0177 29.9815C17.5982 30.5619 18.2285 31.0901 18.9015 31.56C19.4892 31.9702 20.2843 31.9078 20.7911 31.4011L22.7237 29.4683C23.4903 28.7018 23.8339 27.7023 23.7976 26.7322C23.7888 26.503 23.7266 26.279 23.6158 26.0781C23.5051 25.8772 23.349 25.7049 23.1599 25.575C22.8926 25.391 22.5503 25.1275 22.2106 24.7884C19.6336 22.2114 19.6228 18.0286 22.2106 15.4408L28.3794 9.27294C30.9716 6.68068 35.1999 6.69629 37.7725 9.31975C40.3198 11.9176 40.2392 16.1067 37.6664 18.6794L36.4651 19.8807C36.0658 20.28 35.9355 20.8712 36.1178 21.4056C36.6561 22.984 36.9479 24.6184 37.0073 26.2453C37.0541 27.5218 38.6096 28.1221 39.5128 27.2189L42.9191 23.8126C48.3599 18.3728 48.3599 9.51996 42.9191 4.08008Z" fill="#1EB4E9"/>
</g>
<defs>
<clipPath id="clip0_9_42">
<rect width="47" height="47" fill="white"/>
</clipPath>
</defs>
</svg>
