<svg width="50" height="50" viewBox="0 0 50 50" fill="none" xmlns="http://www.w3.org/2000/svg">
<path d="M45.5566 8.17383L26.8066 0.361334C26.2355 0.1244 25.6232 0.00244141 25.0049 0.00244141C24.3865 0.00244141 23.7743 0.1244 23.2031 0.361334L4.45312 8.17383C2.70508 8.89649 1.5625 10.6055 1.5625 12.5C1.5625 31.8848 12.7441 45.2832 23.1934 49.6387C24.3457 50.1172 25.6445 50.1172 26.7969 49.6387C35.166 46.1524 48.4375 34.1113 48.4375 12.5C48.4375 10.6055 47.2949 8.89649 45.5566 8.17383ZM25.0098 43.584L25 6.37696L42.1777 13.5352C41.8555 28.3203 34.1602 39.0332 25.0098 43.584Z" fill="#1EB4E9"/>
</svg>
