<svg width="25" height="25" viewBox="0 0 25 25" fill="none" xmlns="http://www.w3.org/2000/svg">
<path d="M0.390625 12.5C0.390625 5.81055 5.81055 0.390625 12.5 0.390625C19.1895 0.390625 24.6094 5.81055 24.6094 12.5C24.6094 19.1895 19.1895 24.6094 12.5 24.6094C5.81055 24.6094 0.390625 19.1895 0.390625 12.5ZM7.40234 13.9111L10.9375 10.2246V19.1406C10.9375 19.79 11.46 20.3125 12.1094 20.3125H12.8906C13.54 20.3125 14.0625 19.79 14.0625 19.1406V10.2246L17.5977 13.9111C18.0518 14.3848 18.8086 14.3945 19.2725 13.9307L19.8047 13.3936C20.2637 12.9346 20.2637 12.1924 19.8047 11.7383L13.3301 5.25879C12.8711 4.7998 12.1289 4.7998 11.6748 5.25879L5.19043 11.7383C4.73145 12.1973 4.73145 12.9395 5.19043 13.3936L5.72266 13.9307C6.19141 14.3945 6.94824 14.3848 7.40234 13.9111Z" fill="#00E5F3"/>
</svg>
